<?xml version="1.0" encoding="utf-8"?>
<!-- Generator: Adobe Illustrator 17.0.0, SVG Export Plug-In . SVG Version: 6.00 Build 0)  -->
<!DOCTYPE svg PUBLIC "-//W3C//DTD SVG 1.1//EN" "http://www.w3.org/Graphics/SVG/1.1/DTD/svg11.dtd">
<svg version="1.1" id="Слой_1" xmlns="http://www.w3.org/2000/svg" xmlns:xlink="http://www.w3.org/1999/xlink" x="0px" y="0px"
	 width="61.796px" height="61.796px" viewBox="0 0 61.796 61.796" enable-background="new 0 0 61.796 61.796" xml:space="preserve">
<g>
	<g>
		<rect x="0" y="0" fill="#278CCC" width="61.796" height="61.796"/>
		<g>
			<g>
				<g>
					<g>
						<path fill="#FFFFFF" d="M32.891,53.193v-3.392l0.804-0.161c1.221-0.244,1.841-0.474,2.147-0.624
							c0.34-0.166,0.582-0.384,0.738-0.664c0.169-0.303,0.259-0.772,0.259-1.358c0-0.658-0.08-1.385-0.237-2.161
							c-0.165-0.813-0.405-1.736-0.714-2.745l-0.984-3.434H21.411l-0.857,2.474c-0.541,1.539-0.896,2.706-1.058,3.473
							c-0.156,0.739-0.235,1.415-0.235,2.009c0,0.986,0.22,1.688,0.655,2.087c0.498,0.458,1.328,0.772,2.466,0.935l0.859,0.123
							v3.439H7.536v-3.425l0.841-0.135c0.939-0.15,1.751-0.705,2.484-1.694c0.829-1.118,1.653-2.764,2.451-4.892L26.94,6.87h6.504
							l11.127,36.494c0.499,1.621,0.943,2.867,1.319,3.7c0.335,0.744,0.731,1.32,1.178,1.715c0.431,0.383,1.055,0.675,1.854,0.87
							l0.763,0.187v3.357H32.891z M33.645,33.862l-4.848-16.456L22.98,33.862H33.645z"/>
						<path fill="#278CCC" d="M32.703,7.87l10.912,35.786c0.514,1.669,0.968,2.942,1.364,3.819c0.396,0.877,0.872,1.562,1.428,2.054
							c0.556,0.493,1.316,0.856,2.279,1.091v1.573H33.891V50.62c1.07-0.214,1.866-0.449,2.391-0.706
							c0.524-0.257,0.915-0.615,1.171-1.075c0.257-0.46,0.385-1.075,0.385-1.845c0-0.727-0.086-1.514-0.257-2.359
							c-0.171-0.845-0.417-1.792-0.738-2.84l-1.187-4.14H20.7l-1.091,3.145c-0.557,1.584-0.92,2.782-1.091,3.595
							c-0.172,0.814-0.257,1.551-0.257,2.215c0,1.284,0.326,2.225,0.979,2.824c0.653,0.599,1.653,0.995,3.001,1.188v1.573H8.536
							V50.62c1.198-0.193,2.241-0.888,3.129-2.086c0.888-1.198,1.749-2.91,2.584-5.135L27.632,7.87H32.703 M21.566,34.862h13.416
							l-6.098-20.701L21.566,34.862 M34.184,5.87h-1.481h-5.071h-1.384l-0.488,1.295L12.377,42.694
							c-0.766,2.043-1.546,3.606-2.319,4.65c-0.57,0.769-1.171,1.195-1.84,1.302l-1.683,0.27v1.704v1.573v2h2H22.24h2v-2V50.62
							v-1.735l-1.717-0.245c-1.226-0.175-1.736-0.502-1.931-0.68c-0.211-0.194-0.332-0.686-0.332-1.351
							c0-0.523,0.072-1.13,0.214-1.802c0.152-0.725,0.496-1.85,1.021-3.344l0.627-1.808h12.026l0.772,2.691
							c0.31,1.015,0.543,1.907,0.701,2.687c0.144,0.711,0.217,1.371,0.217,1.962c0,0.604-0.11,0.831-0.131,0.871
							c-0.024,0.044-0.08,0.144-0.305,0.254c-0.207,0.101-0.731,0.307-1.903,0.541l-1.608,0.321v1.64v1.573v2h2h14.796h2v-2V50.62
							V49.05l-1.526-0.372c-0.63-0.154-1.124-0.377-1.427-0.646c-0.342-0.302-0.654-0.765-0.931-1.378
							c-0.36-0.796-0.789-2.002-1.276-3.586L34.616,7.287L34.184,5.87L34.184,5.87z M24.395,32.862l4.316-12.211l3.597,12.211
							H24.395L24.395,32.862z"/>
					</g>
				</g>
			</g>
			<g>
				<g>
					<g>
						<path fill="#FFFFFF" d="M27.451,55.444v-4.811l0.406-0.3c2.457-1.815,4.722-3.51,6.794-5.079
							c2.034-1.541,3.813-3.038,5.289-4.451c1.441-1.38,2.581-2.734,3.39-4.028c0.751-1.201,1.132-2.416,1.132-3.609
							c0-1.561-0.468-2.705-1.432-3.497c-1.01-0.829-2.535-1.249-4.533-1.249c-1.555,0.021-3.099,0.255-4.576,0.696
							c-1.522,0.457-3.114,1.066-4.729,1.812l-1.419,0.655v-6.376l0.499-0.289c1.281-0.742,2.872-1.395,4.729-1.94
							c1.872-0.549,3.948-0.827,6.171-0.827c1.78,0,3.439,0.23,4.931,0.686c1.519,0.464,2.855,1.155,3.973,2.055
							c1.139,0.917,2.032,2.064,2.654,3.408c0.619,1.336,0.932,2.887,0.932,4.608c0,1.84-0.405,3.583-1.204,5.181
							c-0.773,1.547-1.838,3.048-3.167,4.459c-1.298,1.38-2.842,2.76-4.588,4.104c-0.964,0.74-1.974,1.497-3.02,2.263
							c1.255-0.04,2.437-0.061,3.533-0.061H54.26v6.59H27.451z"/>
						<path fill="#278CCC" d="M39.171,23.151c1.69,0,3.236,0.214,4.639,0.642c1.402,0.428,2.615,1.054,3.637,1.878
							c1.023,0.824,1.814,1.841,2.374,3.049c0.56,1.209,0.84,2.605,0.84,4.188c0,1.69-0.366,3.269-1.098,4.734
							c-0.732,1.466-1.732,2.872-3.001,4.22c-1.269,1.348-2.759,2.68-4.47,3.996c-1.712,1.316-3.552,2.669-5.52,4.06v0.128
							c2.461-0.128,4.675-0.193,6.644-0.193H53.26v4.589H28.451v-3.306c2.46-1.818,4.728-3.514,6.804-5.087
							c2.075-1.573,3.867-3.081,5.376-4.526c1.508-1.444,2.69-2.851,3.546-4.22c0.856-1.369,1.284-2.749,1.284-4.14
							c0-1.862-0.599-3.284-1.797-4.269c-1.198-0.984-2.92-1.476-5.167-1.476c-1.669,0.022-3.289,0.268-4.862,0.738
							c-1.572,0.471-3.193,1.091-4.862,1.862v-4.236c1.219-0.706,2.723-1.321,4.509-1.846
							C35.068,23.414,37.031,23.151,39.171,23.151 M39.171,21.151c-2.32,0-4.491,0.292-6.452,0.867
							c-1.933,0.568-3.598,1.252-4.949,2.034l-0.998,0.578v1.153v4.236v3.126l2.838-1.31c1.573-0.726,3.12-1.319,4.598-1.762
							c1.387-0.415,2.839-0.635,4.314-0.654c1.734,0,3.046,0.344,3.872,1.022c0.458,0.376,1.066,1.067,1.066,2.723
							c0,1.018-0.32,2.025-0.98,3.08c-0.764,1.222-1.851,2.512-3.234,3.836c-1.447,1.385-3.197,2.857-5.201,4.376
							c-2.086,1.58-4.369,3.287-6.785,5.072l-0.811,0.6v1.009v3.306v2h2H53.26h2v-2v-4.589v-2h-2H43.215
							c-0.146,0-0.293,0-0.442,0.001c0.181-0.138,0.36-0.275,0.537-0.411c1.788-1.374,3.371-2.791,4.708-4.211
							c1.397-1.484,2.518-3.065,3.334-4.698c0.868-1.738,1.309-3.631,1.309-5.627c0-1.867-0.345-3.559-1.025-5.028
							c-0.687-1.485-1.674-2.752-2.934-3.766c-1.217-0.98-2.667-1.731-4.308-2.233C42.808,21.397,41.051,21.151,39.171,21.151
							L39.171,21.151z"/>
					</g>
				</g>
			</g>
		</g>
	</g>
</g>
</svg>
