<?xml version="1.0" encoding="utf-8"?><svg xmlns="http://www.w3.org/2000/svg" xmlns:xlink="http://www.w3.org/1999/xlink"><symbol viewBox="103.979 97.378 90.81 100" id="designer" xmlns="http://www.w3.org/2000/svg"><g fill="#606060"><path d="M193.228 194.258h-5.254v-25.692a1.56 1.56 0 0 0-1.56-1.56h-33.101v-5.061c0-.083-.008-.163-.021-.242a21.567 21.567 0 0 0 3.018-1.533l.001.001c2.999 1.53 5.889 2.074 8.484 2.074 6.2 0 10.713-3.108 10.978-3.294a1.56 1.56 0 0 0 .662-1.276v-31c0-10.229-3.498-18.016-10.396-23.146-5.333-3.966-12.727-6.15-20.818-6.15-8.092 0-15.485 2.184-20.818 6.15-6.899 5.13-10.396 12.917-10.396 23.146v31c0 .508.247.984.662 1.276.264.186 4.777 3.294 10.978 3.294 2.529 0 5.34-.52 8.257-1.963.871.52 1.811 1 2.83 1.42-.012.079-.021.16-.021.242v7.437h-7.805c-.265-.001-6.42.009-11.33 4.884-3.851 3.823-5.803 9.474-5.803 16.796v3.197h-6.233a1.56 1.56 0 0 0 0 3.12h87.689a1.56 1.56 0 1 0-.003-3.12zm-58.404-21.731c.538 4.668 4.097 8.427 8.666 9.268-.401.64-1.085.978-1.694 1.156-2.244.653-5.634-.232-7.494-3.159-2.503-3.938-.219-6.566.522-7.265zm50.029 20.97h-37.517v-23.37h37.517v23.37zm-55.53-41.896c-2.442-3.747-3.176-7.457-3.289-8.095v-4.57c1.384 1.153 3.379 1.608 6.202 1.608.816 0 1.755-.03 3.043-.099 2.632-.139 4.573-1.094 5.77-2.839a6.723 6.723 0 0 0 .946-2.128c1.001-.345 3.233-.866 5.959.033.191.726.488 1.441.937 2.095 1.197 1.745 3.138 2.701 5.77 2.839 1.288.068 2.227.099 3.043.099 2.877 0 4.897-.47 6.283-1.673v4.638c-.11.637-.819 4.259-3.227 7.997-3.496 5.428-8.746 8.412-15.606 8.869h-.29c-6.814-.456-12.044-3.407-15.541-8.774zm34.666-23.631c-1.469-.391-3.805-.845-6.717-.845-2.69 0-5.38.388-7.994 1.153a1.559 1.559 0 0 0-1.044 1.013 13.38 13.38 0 0 0-.537 2.914 12.598 12.598 0 0 0-5.451-.023 13.319 13.319 0 0 0-.535-2.891 1.563 1.563 0 0 0-1.044-1.013 28.462 28.462 0 0 0-7.994-1.153c-2.859 0-5.162.438-6.636.824v-1.514a45.5 45.5 0 0 0 2.11.048c3.149 0 7.976-.31 13.088-1.786 5.264-1.52 9.727-3.944 13.3-7.22a17.809 17.809 0 0 0 9.456 8.385v2.109h-.002zm-.492 3.102c-.365 6.046-1.796 6.35-5.791 6.35-.759 0-1.647-.029-2.879-.094-1.63-.086-2.728-.571-3.356-1.482-.928-1.346-.744-3.5-.472-4.805a25.284 25.284 0 0 1 6.273-.796c2.816 0 5.019.484 6.225.827zm-25.024 4.774c-.628.911-1.726 1.395-3.356 1.482-1.232.065-2.12.094-2.879.094-3.996 0-5.427-.304-5.791-6.354 1.198-.342 3.387-.823 6.225-.823 2.105 0 4.211.267 6.273.796.271 1.307.455 3.459-.472 4.805zm-21.347 20.966v-30.137c0-9.188 3.074-16.133 9.138-20.642 4.799-3.568 11.531-5.534 18.956-5.534s14.158 1.965 18.956 5.534c6.064 4.509 9.138 11.454 9.138 20.642v30.131c-1.898 1.081-7.637 3.771-14.112 1.244a22.751 22.751 0 0 0 4.183-4.856c3.003-4.662 3.68-9.149 3.707-9.338.011-.074.016-.149.016-.224v-18.876a1.56 1.56 0 0 0-1.085-1.486c-7.437-2.382-9.388-8.691-9.466-8.953a1.56 1.56 0 0 0-2.646-.628c-3.336 3.611-11.12 9.67-25.77 9.67-2.133 0-3.475-.153-3.488-.155a1.562 1.562 0 0 0-1.743 1.55v18.876c0 .075.005.15.016.224.027.189.705 4.675 3.707 9.338a22.786 22.786 0 0 0 4.31 4.967c-6.391 2.368-11.946-.266-13.817-1.347zm27.588 6.679c.034.002.067.003.101.003h.393c.034 0 .067-.001.101-.003a26.597 26.597 0 0 0 4.883-.763v4.277h-4.416a1.56 1.56 0 0 0-1.56 1.56v10.189a7.571 7.571 0 0 1-6.246-6.253h.302a1.56 1.56 0 0 0 1.56-1.56v-8.214c1.492.383 3.114.65 4.882.764zm-29.821 27.57c0-18.345 13.424-18.558 14.001-18.559h2.091c-1.149 2.197-1.606 5.362.684 8.964 2.121 3.337 5.577 4.807 8.618 4.807.838 0 1.643-.112 2.381-.326a6.921 6.921 0 0 0 1.547-.658v8.969h-29.323l.001-3.197z"/><circle cx="133.936" cy="133.577" r="1.862"/><circle cx="156.087" cy="133.577" r="1.862"/><path d="M144.741 143.643h.541a3.031 3.031 0 0 0 3.028-3.028 1.56 1.56 0 0 0-3.118-.092h-.361a1.56 1.56 0 0 0-3.118.092 3.032 3.032 0 0 0 3.028 3.028zm14.267 37.079c.19 2.491 1.675 4.773 4.075 6.262.704.436 1.53.794 2.522 1.094h.001l.042.013c.039.011.078.018.117.026.031.007.062.016.094.021.075.012.15.018.225.018l.01.001h.002l.01-.001c.074-.001.149-.006.225-.018.032-.005.063-.014.094-.021.039-.008.078-.014.117-.026l.042-.013h.001c.993-.3 1.819-.658 2.522-1.094 2.4-1.489 3.886-3.771 4.075-6.262a5.403 5.403 0 0 0-.793-3.262c-.737-1.174-2.179-1.994-3.507-1.994-1.06 0-2.031.411-2.786 1.092a4.146 4.146 0 0 0-2.786-1.092c-1.329 0-2.772.82-3.507 1.994a5.399 5.399 0 0 0-.795 3.262zm3.437-1.604c.176-.281.63-.531.864-.531.664 0 1.226.715 1.226 1.56a1.56 1.56 0 0 0 3.12 0c0-.846.561-1.56 1.226-1.56.234 0 .687.25.863.531.24.382.361.894.325 1.367-.113 1.487-1.064 2.889-2.609 3.847a6.797 6.797 0 0 1-1.366.625 6.807 6.807 0 0 1-1.367-.625c-1.544-.958-2.495-2.36-2.608-3.847a2.325 2.325 0 0 1 .326-1.367zm-7.761-28.954a1.56 1.56 0 1 0-2.429-1.959c-.017.021-1.891 2.068-6.859 2.068-5.158 0-7.675-2.139-7.8-2.249a1.56 1.56 0 0 0-2.093 2.314c.137.125 3.426 3.056 9.894 3.056 6.495-.001 9.021-2.9 9.287-3.23z"/></g></symbol><symbol viewBox="477.5 412.5 100 100" id="facebook" xmlns="http://www.w3.org/2000/svg"><path fill="#606060" d="M495.759 412.5a18.22 18.22 0 0 0-18.259 18.259v63.481a18.22 18.22 0 0 0 18.259 18.259h34.406v-39.094h-10.338V459.33h10.338v-12.025c0-9.448 6.108-18.122 20.178-18.122 5.697 0 9.909.547 9.909.547l-.331 13.144s-4.296-.041-8.984-.041c-5.074 0-5.888 2.338-5.888 6.219v10.278h15.275l-.666 14.075H545.05V512.5h14.191a18.22 18.22 0 0 0 18.259-18.259V430.76a18.22 18.22 0 0 0-18.259-18.259l-63.482-.001z"/></symbol><symbol viewBox="-29.653 -39.5 95.42 100" id="finger" xmlns="http://www.w3.org/2000/svg"><path fill="#606060" d="M62.625 9.366c-3.247-3.091-7.728-3.844-11.684-4.497-.622-.107-1.238-.21-1.841-.319-.447-.119-1.016-.247-1.594-.384-5.275-1.225-9.003-2.422-9.016-6.741-.013-2.844.928-5.475 1.916-8.269 1.134-3.197 2.309-6.509 2.125-10.362-.359-6.869-3.272-12.844-7.806-15.994-1.806-1.444-4.181-2.3-6.447-2.3-3.366 0-5.878 1.831-6.9 5.019-.719 2.15-.597 4.241-.469 6.453.025.544.066 1.103.078 1.684.128 3.047-.238 5.566-1.128 7.944-1.688 4.753-5.072 9.181-7.834 12.519l-1.509 1.897C8.403-1.319 6.222 1.437 3.741 3.65 2.522 4.612 1.222 4.962-.45 5.322c-.472.031-29.203.316-29.203.316v42.225s22.534-.028 23.8-.103c1.112-.066 2.184-.128 3.166-.128h.456c.928.197 1.866.297 2.844.406.869.091 1.769.191 2.713.369 1.059.203 2.156 1.237 3.219 2.244.613.581 1.216 1.138 1.813 1.563.609.428 1.197.856 1.8 1.294 1.841 1.337 3.75 2.731 5.913 3.7 2.669 1.147 5.616 1.525 8.472 1.891 1.388.184 2.766.35 4.084.616.862.097 1.606.184 2.356.269 2.231.25 4.544.519 6.863.519 1.563 0 2.941-.125 4.216-.378 4.566-1.297 7.472-5 7.475-9.25 2.319-.925 4.394-2.863 5.706-5.344 1.172-2.219 1.566-4.594 1.141-6.697 4.406-2.881 6.684-8.288 5.456-12.928 1.947-1.341 3.291-3.581 3.753-6.313.645-3.78-.521-7.796-2.968-10.227zm-2.975 8.459c-.15 1.3-.744 2.906-2.722 3.266-1.066.306-1.778.928-2.122 1.797-.416 1.053-.263 2.372.422 3.5.716.847.828 2.625.403 4.172-.581 1.837-1.922 3.141-3.997 3.841-.884.109-1.678.725-2.112 1.659-.494 1.069-.384 2.222.294 3.022.588.844.475 2.741-.331 4.303-.644 1.234-1.559 1.975-2.45 1.975-.125 0-.25-.016-.378-.047l-.141-.028h-.147c-1.091 0-2.513.475-3.213 1.566-.463.716-.528 1.581-.178 2.387.434 1.166.388 2.497-.153 3.388-.391.653-1.013 1.031-1.856 1.141-1.494.397-2.978.397-4.419.397-4.284-.384-8.831-.8-13.222-1.591l-2.094-.473c-1.087-.244-2.162-.478-3.119-.719-1.572-.775-3.331-2.103-5.028-3.391-.566-.425-1.116-.847-1.659-1.237-.397-.316-.828-.722-1.266-1.134-1.119-1.05-2.372-2.234-3.934-2.666-1.469-.906-3.034-.906-4.303-.906-4.094-.378-6.025-1.859-7.022-5.444-.981-3.613-1.016-7.741-.959-11.316l.012-.8c.031-3.369.084-7.584 1.813-10.644.859-1.459 2.572-1.769 4.556-2.15 2.744-.447 4.903-1.35 6.922-2.9.284-.103.581-.316.8-.716.822-.563 1.494-1.384 2.106-2.125 3.25-3.525 6.238-7.206 8.587-10.588.547-.813 1.097-1.594 1.637-2.369 2.497-3.569 5.084-7.259 6.184-11.806.781-3.347.706-6.244.531-9.678L27.069-29c-.134-2.091-.166-4.341 1.012-4.506.081-.012.181-.025.275-.025 1.912 0 4.328 2.413 5.763 4.647 1.497 2.837 2.278 5.809 2.197 8.5-.078 2.794-.987 5.438-1.953 8.241-1.138 3.309-2.316 6.738-2.044 10.466.39 5.077 4.422 9.468 10.031 10.924 1.638.425 3.378.709 5.056.981 3.131.509 6.366 1.038 9.009 2.519 1.723.866 3.56 2.687 3.235 5.078z"/></symbol><symbol viewBox="7.113 -10.841 100 68.729" id="folder" xmlns="http://www.w3.org/2000/svg"><g fill="#FFF"><path d="M107.113 19.253c-2.016 5.515-4.04 11.027-6.048 16.546-2.566 7.052-5.119 14.109-7.68 21.164-.11.304-.242.601-.375.925H17.541c.082-.285.139-.549.233-.799 4.592-12.26 9.184-24.521 13.785-36.778 1.383-3.682 4.965-6.133 8.902-6.133 20.567 0 41.135.014 61.702-.019 2.313-.004 4.052.698 4.95 2.946v2.148z"/><path d="M7.113-5.747c.222-.573.382-1.18.678-1.713 1.199-2.166 3.031-3.354 5.539-3.358 8.038-.012 16.077.006 24.116-.023.73-.002 1.077.24 1.39.882 1.755 3.59 3.583 7.145 5.332 10.739.332.684.695.919 1.462.918 14.256-.027 28.51-.021 42.765-.019 3.085 0 5.638 2.158 6.161 5.2.053.31.036.63.055 1.044h-53.46c-7.381.001-13.034 3.927-15.629 10.853-1.254 3.346-2.505 6.694-3.759 10.04a65458.84 65458.84 0 0 1-8.242 21.994c-.102.272-.226.535-.332.788-2.446.08-4.831-1.605-5.705-4.001-.122-.334-.247-.667-.369-1-.002-17.448-.002-34.896-.002-52.344z"/></g></symbol><symbol viewBox="475.5 410.5 100 100.073" id="instagram" xmlns="http://www.w3.org/2000/svg"><title>Layer 1</title><path fill="#606060" d="M550.509 410.5h-50.017c-13.78 0-24.991 11.174-24.991 24.907v50.258c0 13.733 11.211 24.908 24.991 24.908h50.017c13.78 0 24.991-11.175 24.991-24.908v-50.258c0-13.733-11.211-24.907-24.991-24.907zm15.735 75.165c0 8.647-7.059 15.683-15.735 15.683h-50.017c-8.677 0-15.735-7.036-15.735-15.683v-32.459h19.772a23.444 23.444 0 0 0-2.255 10.051c0 13.046 10.649 23.659 23.739 23.659 13.089 0 23.739-10.612 23.739-23.659 0-3.592-.812-6.998-2.256-10.051h18.749l-.001 32.459zm-50.087-22.408c0-5.415 4.421-9.821 9.855-9.821s9.854 4.406 9.854 9.821c0 5.416-4.42 9.821-9.854 9.821-5.434 0-9.855-4.406-9.855-9.821zm50.087-19.277H539.75c-3.881-2.755-8.62-4.382-13.738-4.382s-9.857 1.627-13.737 4.382h-27.518v-8.573c0-8.648 7.059-15.682 15.735-15.682h50.017c8.677 0 15.735 7.035 15.735 15.682v8.573zm-10.03-18.66h-8.58a2.78 2.78 0 0 0-2.777 2.767v8.552a2.78 2.78 0 0 0 2.777 2.767h8.58a2.78 2.78 0 0 0 2.777-2.767v-8.552a2.78 2.78 0 0 0-2.777-2.767z"/></symbol><symbol viewBox="-14.23 -25.254 100 82.236" id="iso" xmlns="http://www.w3.org/2000/svg"><path d="M67.86 38.005c-2.213 3.205-5.012 6.303-8.077 8.716l-.527-.049c-1.325-.838-2.756-1.528-4.025-2.361 1.694-2.053 3.336-4.096 4.604-6.355h-1.641c-1.323 1.94-2.701 3.985-4.441 5.72-2.329-.943-4.441-1.786-6.816-2.416l-.262-.209c.371-1.052 1.051-2.05 1.268-3.095H46.52l-1.433 2.833c-3.118-.684-6.555-1.052-9.728-1.259-.154-.47.064-1.157-.154-1.572H33.83c-.104.626.159 1.102-.154 1.622-3.279.159-6.45.525-9.515 1.157l-1.426-2.779c-.531 0-1.111-.11-1.48.049l1.321 3.095-.156.159a63.121 63.121 0 0 0-6.975 2.471l-.216-.108c-1.48-1.622-2.906-3.408-4.07-5.198-.258-.888-1.316-.368-1.898-.467 1.266 2.306 2.955 4.356 4.65 6.454-1.429.844-2.855 1.79-4.335 2.471a38.135 38.135 0 0 1-8.348-8.875c-.637-.104-1.059-.049-1.691 0 3.801 5.987 9.724 11.236 15.907 14.331l.049-.049.057.159c4.172 2.045 8.61 3.518 13.314 4.147C45.087 58.75 60.57 51.765 69.553 38.01a9.27 9.27 0 0 0-1.693-.005zm-22.028 4.728l.154-.108c2.276.525 4.443 1.265 6.454 2.26-1.694 1.94-3.861 3.622-5.874 5.041-1.215.734-2.43 1.523-3.698 2.153l-2.274-.997.163-.368c1.902-2.574 3.598-5.199 5.075-7.981zm-10.407-1.58c3.01.055 6.019.368 8.82 1.052l.046.159c-1.468 2.833-3.327 5.561-5.331 8.136-.897.104-1.74-.264-2.648-.317l-.888-.101c-.107-3.099-.162-5.832.001-8.929zm-10.203.945c2.747-.52 5.601-.943 8.562-.943l.049 8.875c-1.105.262-2.322.262-3.382.525-2.168-2.575-3.963-5.357-5.495-8.245l.266-.212zm-8.509 2.837c2.061-.996 4.227-1.732 6.445-2.312l.216.055c1.53 2.888 3.433 5.616 5.338 8.345-.743.426-1.638.69-2.382 1.105a35.631 35.631 0 0 1-9.616-7.034l-.001-.159zm6.818 8.977c-4.441-1.155-8.562-3.15-12.368-5.879v-.159c1.272-.789 2.54-1.627 3.914-2.202 3.012 2.987 6.13 5.249 9.514 7.402l-1.06.838zm19.6.685c-5.592 1.206-11.838 1.256-17.432-.108l.423-.472c4.915-3.205 12.579-3.205 17.382.264l-.373.316zm14.958-6.721c-2.955 2.361-6.39 3.939-9.881 5.249l-2.483.789c-.417-.212-.789-.522-1.16-.838l.099-.159c3.39-1.995 6.454-4.411 9.354-7.297 1.432.579 2.801 1.363 4.071 2.256zM1.094-6.278c2.213-3.205 5.012-6.303 8.077-8.716l.525.049c1.325.838 2.756 1.528 4.025 2.361-1.694 2.053-3.336 4.096-4.604 6.355h1.641c1.323-1.94 2.701-3.985 4.441-5.72 2.329.943 4.441 1.786 6.816 2.416l.262.209c-.371 1.051-1.051 2.05-1.268 3.095h1.422l1.433-2.833c3.118.684 6.555 1.051 9.728 1.259.154.472-.064 1.157.154 1.572h1.376c.104-.626-.159-1.102.154-1.622 3.279-.159 6.45-.525 9.515-1.157l1.426 2.779c.531 0 1.111.11 1.48-.049l-1.321-3.095.156-.159a63.121 63.121 0 0 0 6.975-2.471l.216.108c1.48 1.624 2.906 3.408 4.07 5.198.258.888 1.316.368 1.896.467-1.266-2.306-2.955-4.356-4.65-6.454 1.429-.844 2.855-1.79 4.335-2.471a38.135 38.135 0 0 1 8.348 8.875c.637.104 1.059.049 1.691 0-3.801-5.987-9.724-11.236-15.907-14.331l-.049.049-.057-.159c-4.172-2.045-8.61-3.518-13.314-4.147C23.864-27.023 8.381-20.038-.602-6.283a9.305 9.305 0 0 0 1.696.005zm22.027-4.728l-.154.108c-2.276-.525-4.443-1.265-6.454-2.26 1.694-1.94 3.861-3.622 5.874-5.041 1.215-.734 2.43-1.523 3.698-2.153l2.274.997-.163.368c-1.903 2.574-3.597 5.199-5.075 7.981zm10.406 1.58c-3.01-.055-6.019-.368-8.82-1.052l-.044-.159c1.468-2.833 3.327-5.561 5.331-8.136.897-.104 1.74.262 2.648.317l.888.101c.105 3.099.16 5.832-.003 8.929zm10.205-.945c-2.747.52-5.601.943-8.562.943l-.049-8.875c1.105-.262 2.322-.262 3.382-.525 2.168 2.573 3.963 5.357 5.495 8.245l-.266.212zm8.508-2.837c-2.061.996-4.227 1.732-6.445 2.312l-.216-.055c-1.53-2.888-3.433-5.616-5.336-8.345.743-.426 1.638-.69 2.382-1.105a35.631 35.631 0 0 1 9.616 7.034v.159h-.001zm-6.817-8.977c4.441 1.155 8.562 3.15 12.368 5.879v.159c-1.272.789-2.54 1.627-3.914 2.202-3.012-2.987-6.13-5.249-9.514-7.402l1.06-.838zm-19.6-.685c5.592-1.206 11.838-1.256 17.432.11l-.423.47c-4.915 3.205-12.579 3.205-17.382-.264l.373-.316zm-14.957 6.721c2.955-2.361 6.392-3.939 9.881-5.249l2.483-.789c.417.212.789.522 1.16.838l-.099.159c-3.39 1.995-6.454 4.411-9.354 7.297-1.434-.579-2.803-1.363-4.071-2.256zm22.541 39.771c-4.751-1.631-9.666-2.837-14.372-4.519-3.433-1.311-7.025-4.093-7.715-7.872-.9-3.994.159-8.507 3.594-11.027C20.199-3.625 28.335-3.367 34.15-.898L36.576.418c.264-.635.055-1.523.163-2.153 2.375-.11 5.285-.11 7.66-.058.055 4.36.209 8.139.108 12.451-2.538.099-5.23.049-7.559.049-2.167-3.414-5.967-4.673-9.666-5.198-1.746-.049-4.073-.577-5.078 1.155-.101.575.163 1.047.586 1.413l.951.476 12.791 3.725c4.278 1.105 8.504 5.149 9.084 9.613.589 4.563-1.532 8.815-5.493 11.027-5.439 2.828-12.524 2.306-18.019 0-.9-.476-1.797-.997-2.697-1.424l-.107 2.524-7.927.049c-.159-4.201-.103-9.084 0-13.336l7.135-.055c.426.525.692 1.157 1.113 1.682 3.592 3.78 8.981 4.827 13.946 3.463.371-.209.854-.47.854-.943.098-.576-.533-1.047-1.014-1.256zm-47.557 1.787l5.23-.108.057-.73V6.712c-1.746-.159-3.436-.101-5.235-.159a247.432 247.432 0 0 1 0-8.87l3.277-.055 19.923.055c.156 2.733.106 5.932.049 8.928l-5.23.049-.105.16-.053 18.43c1.691.209 3.644.049 5.389.159v8.661h-23.304c-.104-2.886-.104-5.775.002-8.661zm98.391-18.39c-.943-2.52-2.901-4.777-5.276-6.404-6.871-4.411-17.342-4.728-24.411-.739-3.861 1.993-6.399 5.937-7.188 9.975-1.433 6.671-1.061 14.598 4.006 19.59 5.929 5.249 14.54 6.404 22.2 4.252.362-.073 1.523-.368 2.312-.794l.226-.099c2.375-.996 4.65-2.628 6.335-4.832 3.917-5.776 4.181-14.441 1.796-20.949zM73.309 21.98c-.272 1.265-1.123 2.575-2.466 3.051-2.149.943-5.049.679-7.034-.421-1.668-1.157-1.877-3.095-2.094-4.936-.163-3.626-.435-7.455.589-10.769.807-2.045 3.01-2.57 4.995-2.729 2.092 0 4.133.317 5.419 1.999.807 1.206.753 2.784.916 4.197-.054 2.995.21 6.562-.325 9.608z" fill="#606060"/></symbol><symbol viewBox="65.846 48.529 100 76.471" id="letter" xmlns="http://www.w3.org/2000/svg"><g fill="#606060"><path d="M123.955 83.097c9.035-2.603 31.405-18.567 40.873-25.695-2.083-5.197-7.158-8.873-13.1-8.873H79.964c-5.941 0-11.016 3.676-13.1 8.873 9.471 7.128 31.843 23.095 40.872 25.695 3.641 1.048 12.583 1.048 16.219 0z"/><path d="M126.56 92.142c-2.702.779-6.708 1.169-10.714 1.169-4.005 0-8.01-.39-10.715-1.169-9.873-2.845-29.272-16.442-39.285-23.774v42.515c0 7.797 6.321 14.118 14.118 14.118h71.765c7.797 0 14.118-6.321 14.118-14.118V68.368c-10.014 7.332-29.413 20.929-39.287 23.774z"/></g></symbol><symbol viewBox="34.914 3.398 200 43.392" id="logo" xmlns="http://www.w3.org/2000/svg"><path fill="#278CCC" d="M34.914 3.398h43.392V46.79H34.914z"/><path fill="#FFF" d="M58.009 40.749v-2.382l.565-.113c.857-.171 1.293-.333 1.508-.438.239-.117.409-.27.518-.466.119-.213.182-.542.182-.954 0-.462-.056-.973-.166-1.517a20.821 20.821 0 0 0-.501-1.927l-.691-2.411H49.95l-.602 1.737c-.38 1.081-.629 1.9-.743 2.439a6.9 6.9 0 0 0-.165 1.411c0 .692.154 1.185.46 1.465.35.322.932.542 1.732.657l.603.086v2.415H40.206v-2.405l.591-.095c.659-.105 1.23-.495 1.744-1.189.582-.785 1.161-1.941 1.721-3.435l9.569-25.403h4.567l7.813 25.625c.35 1.138.662 2.013.926 2.598.235.522.513.927.827 1.204.303.269.741.474 1.302.611l.536.131v2.357l-11.793-.001zm.53-13.574L55.135 15.62 51.05 27.175h7.489z"/><path fill="#278CCC" d="M57.877 8.924l7.662 25.128c.361 1.172.68 2.066.958 2.682.278.616.612 1.097 1.003 1.442.39.346.924.601 1.6.766v1.105H58.711v-1.105c.751-.15 1.31-.315 1.679-.496.368-.18.642-.432.822-.755.18-.323.27-.755.27-1.296 0-.51-.06-1.063-.18-1.656a21.478 21.478 0 0 0-.518-1.994l-.833-2.907H49.449l-.766 2.208c-.391 1.112-.646 1.953-.766 2.524a7.558 7.558 0 0 0-.18 1.555c0 .902.229 1.562.687 1.983s1.161.699 2.107.834v1.105h-9.623v-1.106c.841-.136 1.574-.624 2.197-1.465.624-.841 1.228-2.043 1.814-3.606l9.397-24.948h3.561m-7.82 18.955h9.42l-4.282-14.536-5.138 14.536m8.86-20.357h-5.573l-.343.909-9.397 24.948c-.538 1.435-1.086 2.532-1.628 3.265-.4.54-.822.839-1.292.914l-1.182.19v3.706h12.431v-3.727l-1.206-.172c-.861-.123-1.219-.352-1.356-.477-.148-.136-.233-.482-.233-.949 0-.367.051-.793.15-1.265.107-.509.348-1.299.717-2.348l.44-1.27h8.444l.542 1.89c.218.713.381 1.339.492 1.887.101.499.152.963.152 1.378 0 .424-.077.584-.092.612-.017.031-.056.101-.214.178-.145.071-.513.216-1.336.38l-1.129.225v3.661h13.197V37.84l-1.072-.261c-.442-.108-.789-.265-1.002-.454-.24-.212-.459-.537-.654-.968-.253-.559-.554-1.406-.896-2.518L59.221 8.515l-.304-.995zm-6.873 18.953l3.031-8.574 2.526 8.574h-5.557z"/><path fill="#FFF" d="M54.189 42.329v-3.378l.285-.211a511.714 511.714 0 0 0 4.771-3.566c1.428-1.082 2.677-2.133 3.714-3.125 1.012-.969 1.812-1.92 2.38-2.828.527-.843.795-1.696.795-2.534 0-1.096-.329-1.899-1.006-2.456-.709-.582-1.78-.877-3.183-.877a11.796 11.796 0 0 0-3.213.489 25.5 25.5 0 0 0-3.321 1.272l-.996.46v-4.477l.35-.203c.899-.521 2.017-.98 3.321-1.362 1.314-.385 2.772-.581 4.333-.581 1.25 0 2.415.162 3.462.482 1.067.326 2.005.811 2.79 1.443a6.604 6.604 0 0 1 1.864 2.393c.435.938.654 2.027.654 3.236a8.059 8.059 0 0 1-.845 3.638c-.543 1.086-1.291 2.14-2.224 3.131-.911.969-1.996 1.938-3.222 2.882-.677.52-1.386 1.051-2.121 1.589a78.635 78.635 0 0 1 2.481-.043h7.755v4.627c.001-.001-18.824-.001-18.824-.001z"/><path fill="#278CCC" d="M62.419 19.654c1.187 0 2.272.15 3.257.451.984.301 1.836.74 2.554 1.319a5.899 5.899 0 0 1 1.667 2.141c.393.849.59 1.829.59 2.941a7.336 7.336 0 0 1-.771 3.324c-.514 1.029-1.216 2.017-2.107 2.963a26.334 26.334 0 0 1-3.139 2.806 120.577 120.577 0 0 1-3.876 2.851v.09a90.62 90.62 0 0 1 4.665-.136h7.053v3.222h-17.42v-2.321a508.127 508.127 0 0 0 4.778-3.572c1.457-1.105 2.715-2.163 3.775-3.178 1.059-1.014 1.889-2.002 2.49-2.963.601-.961.902-1.93.902-2.907 0-1.307-.421-2.306-1.262-2.998-.841-.691-2.05-1.036-3.628-1.036a12.423 12.423 0 0 0-3.414.518 25.939 25.939 0 0 0-3.414 1.307v-2.974c.856-.496 1.912-.928 3.166-1.296 1.253-.367 2.631-.552 4.134-.552m0-1.404c-1.629 0-3.153.205-4.53.609-1.357.399-2.526.879-3.475 1.428l-.701.406v5.979l1.993-.92a24.633 24.633 0 0 1 3.229-1.237 11.063 11.063 0 0 1 3.029-.459c1.218 0 2.139.242 2.719.718.322.264.749.749.749 1.912 0 .715-.225 1.422-.688 2.163-.536.858-1.3 1.764-2.271 2.694-1.016.973-2.245 2.006-3.652 3.073a512.948 512.948 0 0 1-4.764 3.561l-.569.421v4.433h20.23V37h-8.457l-.31.001.377-.289a27.97 27.97 0 0 0 3.306-2.957c.981-1.042 1.768-2.152 2.341-3.299.609-1.22.919-2.55.919-3.951 0-1.311-.242-2.499-.72-3.531a7.28 7.28 0 0 0-2.06-2.644c-.855-.688-1.873-1.215-3.025-1.568-1.116-.34-2.35-.512-3.67-.512z"/><g><path d="M90.962 33.36h-1.857V19.79h-5.093v-1.675h12.042v1.675h-5.092v13.57zm7.325 0h-1.55V22.537h1.766v5.935c0 1.063-.019 1.846-.057 2.347h.046c.213-.35.471-.744.774-1.185.304-.44.634-.9.991-1.378l4.284-5.719h1.55V33.36h-1.766v-5.935c0-.836.019-1.618.057-2.347h-.046c-.213.35-.473.744-.78 1.185-.308.44-.64.9-.997 1.378l-4.272 5.719zm12.989-9.218v9.217h-1.766V22.537h8.761V33.36h-1.766v-9.217h-5.229zm20.063 3.817c0 .85-.121 1.626-.364 2.324a5.253 5.253 0 0 1-1.031 1.795 4.558 4.558 0 0 1-1.612 1.156c-.631.273-1.337.41-2.119.41-.805 0-1.525-.137-2.159-.41a4.566 4.566 0 0 1-1.618-1.156 5.112 5.112 0 0 1-1.02-1.795c-.235-.699-.353-1.473-.353-2.324 0-.858.121-1.637.364-2.335a5.305 5.305 0 0 1 1.031-1.8 4.524 4.524 0 0 1 1.618-1.162c.634-.273 1.343-.41 2.125-.41.798 0 1.515.137 2.154.41.638.273 1.178.661 1.618 1.162s.779 1.101 1.014 1.8c.234.699.352 1.477.352 2.335zm-1.846 0c0-.668-.081-1.263-.245-1.783a3.95 3.95 0 0 0-.684-1.321 2.884 2.884 0 0 0-1.043-.82c-.402-.186-.843-.279-1.321-.279s-.919.093-1.321.279c-.402.186-.75.459-1.043.82-.292.361-.52.801-.684 1.321-.164.52-.245 1.114-.245 1.783 0 .661.081 1.251.245 1.772.164.52.393.959.69 1.316.296.357.645.628 1.048.815.402.186.843.279 1.321.279s.917-.093 1.316-.279a2.937 2.937 0 0 0 1.037-.815c.292-.357.52-.796.684-1.316.163-.52.245-1.111.245-1.772zm12.077-3.817h-5.594v9.217h-1.846V22.537h7.44v1.605zm11.792 3.68c0 .752-.074 1.418-.224 2a6.176 6.176 0 0 1-.588 1.521 4.2 4.2 0 0 1-.858 1.088c-.329.292-.666.528-1.017.706s-.708.308-1.071.388c-.363.08-.703.119-1.024.119-.664 0-1.24-.108-1.728-.324a3.93 3.93 0 0 1-1.316-.963h-.034v6.301h-1.732V22.537h1.333l.376 1.23h.034c.099-.152.226-.3.382-.444s.364-.298.626-.461c.262-.164.577-.305.946-.427s.769-.183 1.202-.183a5.13 5.13 0 0 1 1.76.308c.566.205 1.065.532 1.498.98s.78 1.024 1.043 1.726c.263.701.392 1.554.392 2.556zm-1.846.024c0-.631-.067-1.197-.202-1.698a3.669 3.669 0 0 0-.6-1.281 2.72 2.72 0 0 0-.986-.815c-.391-.19-.841-.285-1.352-.285-.369 0-.703.049-1.003.148a3.782 3.782 0 0 0-.82.376 3.56 3.56 0 0 0-.631.49 5.265 5.265 0 0 0-.423.467v5.662c.374.38.799.68 1.278.9.477.22.991.331 1.54.331.336 0 .691-.062 1.067-.188.374-.125.72-.35 1.037-.672.317-.323.577-.761.784-1.316.208-.555.311-1.261.311-2.119zm10.971 4.317h-.046c-.145.183-.327.363-.547.541s-.475.338-.763.478c-.289.14-.604.253-.946.336a4.571 4.571 0 0 1-1.094.125c-.524 0-1.005-.078-1.442-.234s-.812-.383-1.128-.684c-.315-.3-.56-.666-.735-1.1a3.895 3.895 0 0 1-.262-1.47c0-.539.097-1.022.291-1.447.194-.426.466-.786.815-1.082.35-.296.769-.524 1.259-.684a5.236 5.236 0 0 1 1.623-.239 9.065 9.065 0 0 1 1.561.148c.478.091.904.205 1.276.342h.046v-.752c0-.296-.019-.558-.057-.786a2.021 2.021 0 0 0-.194-.604c-.197-.364-.513-.666-.946-.906-.433-.239-1.017-.359-1.755-.359-.547 0-1.062.051-1.544.154a9.855 9.855 0 0 0-1.442.427v-1.481c.183-.091.397-.176.644-.256.247-.08.507-.148.78-.205a8.964 8.964 0 0 1 1.777-.177c1.094 0 1.988.194 2.683.581.695.387 1.194.9 1.498 1.538.114.243.196.51.245.803s.074.613.074.963v7.226h-1.481l-.19-1.196zm-.091-3.554c-.324-.091-.71-.178-1.156-.262a8.699 8.699 0 0 0-1.475-.137c-.748 0-1.335.159-1.756.478-.426.319-.636.809-.636 1.47 0 .334.053.626.159.877.105.251.251.458.437.621.184.164.404.285.657.364.253.079.524.119.811.119.378 0 .729-.055 1.056-.165.324-.11.613-.241.866-.393.254-.152.469-.304.647-.456.176-.152.308-.27.391-.353l-.001-2.163zm10.402 10.049v-5.036c-.919-.053-1.741-.224-2.467-.513s-1.338-.678-1.84-1.168a4.893 4.893 0 0 1-1.145-1.743c-.263-.672-.393-1.418-.393-2.239s.129-1.569.388-2.244a4.882 4.882 0 0 1 1.128-1.749c.494-.49 1.105-.881 1.834-1.173s1.561-.466 2.495-.518v-5.412h1.766v5.412c.919.053 1.741.224 2.467.513s1.338.678 1.84 1.168c.501.49.883 1.071 1.145 1.743.262.672.393 1.418.393 2.239 0 .82-.129 1.569-.388 2.244a4.854 4.854 0 0 1-1.133 1.749c-.497.49-1.109.881-1.834 1.173-.725.292-1.555.466-2.489.518v5.036h-1.767zm-3.999-10.699c0 .645.093 1.219.281 1.72.187.501.458.927.805 1.276.35.35.771.625 1.263.826a5.4 5.4 0 0 0 1.65.37v-8.408a5.606 5.606 0 0 0-1.65.382 3.758 3.758 0 0 0-1.263.831 3.615 3.615 0 0 0-.805 1.276c-.187.499-.281 1.074-.281 1.727zm9.764-.023c0-.645-.093-1.217-.281-1.715a3.536 3.536 0 0 0-.807-1.27 3.758 3.758 0 0 0-1.261-.826 5.614 5.614 0 0 0-1.65-.382v8.409a5.606 5.606 0 0 0 1.65-.382 3.73 3.73 0 0 0 1.261-.831c.35-.353.619-.78.807-1.281.188-.502.281-1.076.281-1.722zm6.141 5.424h-1.55V22.537h1.766v5.935c0 1.063-.019 1.846-.057 2.347h.046c.213-.35.471-.744.775-1.185.304-.44.634-.9.991-1.378l4.284-5.719h1.55V33.36h-1.766v-5.935c0-.836.019-1.618.057-2.347h-.046c-.213.35-.473.744-.78 1.185-.308.44-.64.9-.997 1.378l-4.273 5.719zm11.029-7.315c0-.676.167-1.291.501-1.846.334-.555.839-.98 1.515-1.276a4.196 4.196 0 0 1 1.008-.291 8.517 8.517 0 0 1 1.396-.097h4.01V33.36h-1.766v-4.227h-2.734l-2.54 4.227h-1.766l2.54-4.466a2.77 2.77 0 0 1-1.589-1.031 2.752 2.752 0 0 1-.427-.838 3.213 3.213 0 0 1-.148-.98zm4.465-1.993c-.364 0-.672.017-.923.051a2.347 2.347 0 0 0-.672.188 1.736 1.736 0 0 0-.752.633c-.183.277-.273.625-.273 1.043 0 .311.053.575.159.792.106.216.26.391.461.524s.444.23.729.291c.285.061.606.091.963.091h2.507v-3.611h-2.199v-.002zm9.719 9.308l6.209-15.244h1.607l6.209 15.244h-2.017l-1.821-4.592h-6.372l-1.821 4.592h-1.994zm6.995-12.875a153.452 153.452 0 0 1-1.949 5.172l-.569 1.435h5.053l-.579-1.435a125.271 125.271 0 0 1-1.91-5.174l-.046.002zm12.077 11.314c.874-.046 1.66-.068 2.359-.068h3.566v1.629h-8.807v-1.173c.874-.645 1.679-1.248 2.415-1.806a21.625 21.625 0 0 0 1.908-1.607c.536-.513.955-1.012 1.259-1.498.304-.487.456-.976.456-1.47 0-.661-.213-1.166-.638-1.515-.426-.35-1.037-.524-1.834-.524a6.284 6.284 0 0 0-1.726.262c-.558.167-1.133.388-1.726.661v-1.504c.433-.251.966-.469 1.601-.655a7.405 7.405 0 0 1 2.09-.279c.6 0 1.149.076 1.647.228.497.152.928.374 1.291.666.363.292.644.653.843 1.082s.298.925.298 1.487c0 .6-.129 1.16-.389 1.68s-.615 1.02-1.065 1.498c-.45.478-.98.951-1.588 1.418-.608.467-1.261.947-1.96 1.442v.046z" fill="#278CCC"/></g></symbol><symbol viewBox="-6.602 -11.602 77 77" id="logo_square" xmlns="http://www.w3.org/2000/svg"><path fill="#278CCC" d="M-6.602-11.602h77v77h-77z"/><path fill="#FFF" d="M34.381 54.678v-4.227l1.002-.201c1.521-.304 2.294-.591 2.675-.778.424-.207.725-.478.92-.827.211-.378.323-.962.323-1.692 0-.82-.1-1.726-.295-2.693a37.13 37.13 0 0 0-.89-3.42l-1.226-4.279H20.077l-1.068 3.083c-.674 1.918-1.116 3.372-1.318 4.327-.194.921-.293 1.763-.293 2.503 0 1.229.274 2.103.816 2.6.621.571 1.655.962 3.073 1.165l1.07.153v4.285H2.788v-4.268l1.048-.168c1.17-.187 2.182-.878 3.095-2.111 1.033-1.393 2.06-3.444 3.054-6.096L26.966-3.042h8.104l13.865 45.473c.622 2.02 1.175 3.572 1.644 4.61.417.927.911 1.645 1.468 2.137.537.477 1.315.841 2.31 1.084l.951.233v4.183H34.381zm.94-24.087L29.28 10.087l-7.248 20.505h13.289z"/><path fill="#278CCC" d="M34.147-1.796l13.597 44.591c.64 2.08 1.206 3.666 1.7 4.759.493 1.093 1.087 1.946 1.779 2.559.693.614 1.64 1.067 2.84 1.359v1.96H35.627v-1.96c1.333-.267 2.325-.559 2.979-.88.653-.32 1.14-.766 1.459-1.339.32-.573.48-1.339.48-2.299 0-.906-.107-1.886-.32-2.939s-.52-2.233-.92-3.539l-1.479-5.159H19.191l-1.359 3.919c-.694 1.974-1.146 3.466-1.359 4.479-.214 1.014-.32 1.933-.32 2.76 0 1.6.406 2.772 1.22 3.519.814.746 2.06 1.24 3.739 1.48v1.96H4.034v-1.963c1.493-.24 2.792-1.106 3.899-2.599 1.106-1.493 2.179-3.626 3.22-6.398l16.676-44.27h6.318M20.27 31.837h16.717L29.388 6.043 20.27 31.837M35.992-4.288h-9.889l-.608 1.614L8.82 41.596c-.954 2.546-1.926 4.493-2.89 5.794-.71.958-1.459 1.489-2.293 1.622l-2.097.336v6.575h22.062V49.31l-2.139-.305c-1.528-.218-2.163-.626-2.406-.847-.263-.242-.414-.855-.414-1.683 0-.652.09-1.408.267-2.245.189-.903.618-2.305 1.272-4.167l.781-2.253h14.985l.962 3.353c.386 1.265.677 2.376.873 3.348.179.886.27 1.708.27 2.445 0 .753-.137 1.035-.163 1.085-.03.055-.1.179-.38.316-.258.126-.911.383-2.371.674l-2.004.4v6.495h23.42v-6.411l-1.901-.464c-.785-.192-1.401-.47-1.778-.805-.426-.376-.815-.953-1.16-1.717-.449-.992-.983-2.495-1.59-4.468L36.531-2.522l-.539-1.766zM23.795 29.345l5.378-15.215 4.482 15.215h-9.86z"/><path fill="#FFF" d="M27.603 57.483v-5.995l.506-.374a895.577 895.577 0 0 0 8.466-6.329c2.534-1.92 4.751-3.785 6.59-5.546 1.796-1.72 3.216-3.407 4.224-5.019.936-1.496 1.411-3.01 1.411-4.497 0-1.945-.583-3.371-1.784-4.357-1.258-1.033-3.159-1.556-5.648-1.556a20.956 20.956 0 0 0-5.702.867 44.984 44.984 0 0 0-5.893 2.258l-1.768.816v-7.945l.622-.36c1.596-.925 3.579-1.738 5.892-2.417 2.333-.684 4.919-1.03 7.689-1.03 2.218 0 4.285.287 6.144.855 1.893.578 3.557 1.439 4.95 2.561a11.728 11.728 0 0 1 3.307 4.246c.771 1.665 1.161 3.597 1.161 5.742 0 2.293-.505 4.465-1.5 6.456-.963 1.928-2.29 3.798-3.946 5.556-1.617 1.72-3.541 3.439-5.717 5.114-1.201.922-2.46 1.865-3.763 2.82 1.564-.05 3.037-.076 4.402-.076h13.761v8.211c.001-.001-33.404-.001-33.404-.001z"/><path fill="#278CCC" d="M42.206 17.245c2.106 0 4.032.267 5.78.8 1.747.533 3.258 1.313 4.532 2.34a10.458 10.458 0 0 1 2.958 3.799c.698 1.506 1.047 3.246 1.047 5.218 0 2.106-.456 4.073-1.368 5.899-.912 1.827-2.158 3.579-3.739 5.258-1.581 1.68-3.438 3.339-5.57 4.979a212.842 212.842 0 0 1-6.878 5.059v.159c3.066-.159 5.825-.24 8.279-.24h12.515v5.718H28.849v-4.119a888.645 888.645 0 0 0 8.478-6.339c2.586-1.96 4.818-3.839 6.699-5.64 1.879-1.799 3.352-3.552 4.418-5.258 1.067-1.706 1.6-3.425 1.6-5.159 0-2.32-.746-4.092-2.239-5.319-1.493-1.226-3.638-1.839-6.438-1.839-2.08.027-4.098.334-6.058.92a45.81 45.81 0 0 0-6.058 2.32v-5.278c1.519-.88 3.393-1.646 5.618-2.3 2.225-.65 4.671-.978 7.337-.978m0-2.492c-2.891 0-5.596.364-8.039 1.08-2.409.708-4.483 1.56-6.167 2.534l-1.244.72v10.61l3.536-1.632a43.735 43.735 0 0 1 5.729-2.196 19.644 19.644 0 0 1 5.375-.815c2.161 0 3.795.429 4.825 1.273.571.469 1.328 1.33 1.328 3.393 0 1.268-.399 2.523-1.221 3.838-.952 1.523-2.306 3.13-4.03 4.78-1.803 1.726-3.984 3.56-6.481 5.453a886.334 886.334 0 0 1-8.454 6.32l-1.011.748v7.868h35.899V48.025H47.245l-.551.001.669-.512c2.228-1.712 4.2-3.478 5.866-5.247 1.741-1.849 3.138-3.819 4.154-5.854 1.082-2.166 1.631-4.524 1.631-7.011 0-2.326-.43-4.435-1.277-6.265a12.949 12.949 0 0 0-3.656-4.693c-1.516-1.221-3.323-2.157-5.368-2.782-1.975-.603-4.164-.909-6.507-.909z"/></symbol><symbol viewBox="0 0 27.154 34.908" id="pig" xmlns="http://www.w3.org/2000/svg"><ellipse fill="#606060" cx="11.327" cy="19.811" rx="1.312" ry="1.988"/><ellipse fill="#606060" cx="15.827" cy="19.811" rx="1.312" ry="1.988"/><path fill="#606060" d="M27.154 18.842c0-3.25-1.146-6.232-3.053-8.57.076-.13.154-.26.225-.397 1.706-3.342.357-7.126.3-7.286-.221-.603-.821-.884-1.454-.685 0 0-.078.023-.217.074-.859.316-3.607 1.488-5.203 3.948-.195-.062-.396-.114-.599-.168A3.957 3.957 0 0 0 17.577 4a4 4 0 0 0-8 0c0 .634.161 1.226.424 1.758-.199.055-.4.105-.598.168C7.807 3.466 5.059 2.295 4.2 1.978a3.77 3.77 0 0 0-.216-.075c-.632-.199-1.234.081-1.455.685-.06.159-1.407 3.944.299 7.285.069.137.146.268.224.398A13.514 13.514 0 0 0 0 18.842c0 4.786 2.484 8.986 6.228 11.403l-.361 2.635c-.284.622.172 1.439 1.021 1.827.848.389 1.766.197 2.049-.424l1.353-2.285c1.056.264 2.153.418 3.29.418s2.234-.154 3.29-.418l1.353 2.284c.283.621 1.201.812 2.049.424.851-.388 1.307-1.206 1.021-1.827l-.361-2.635c3.738-2.415 6.222-6.614 6.222-11.402zM13.365 3.203c-.617-.208-1.039-.497-1.039-1.057 0-.508.357-.907.977-1.029V.569h.565v.508c.386.017.646.098.837.19l-.168.653c-.148-.063-.416-.196-.832-.196-.375 0-.497.162-.497.323 0 .191.203.312.693.497.688.243.965.561.965 1.082 0 .514-.365.953-1.029 1.068v.59h-.567v-.553c-.387-.018-.762-.121-.981-.248l.175-.676c.241.133.582.254.959.254.328 0 .553-.127.553-.357 0-.219-.185-.357-.611-.501zM6.577 13.268c0-.236.027-.462.068-.682.033 1.111.736 2 1.604 2 .891 0 1.611-.932 1.611-2.081 0-1.11-.676-2.01-1.524-2.069.158-.045.321-.074.49-.074 1.242 0 2.25 1.301 2.25 2.906 0 1.605-1.008 2.906-2.25 2.906s-2.249-1.301-2.249-2.906zm7 13.712a5.24 5.24 0 0 1-1.536-.253c-2.166-.661-3.753-2.652-3.753-5.036 0-2.382 1.587-4.372 3.753-5.034a5.24 5.24 0 0 1 1.536-.253c1.46 0 2.783.592 3.74 1.549a5.287 5.287 0 0 1-3.74 9.027zm4.189-10.806c-1.181 0-2.139-1.178-2.23-2.671.273.642.797 1.083 1.404 1.083.043 0 .082-.012.125-.016.041.004.082.016.125.016.89 0 1.611-.932 1.611-2.081 0-1.11-.678-2.01-1.524-2.069.157-.045.321-.074.489-.074.621 0 1.183.325 1.591.851.204.263.368.576.482.924.114.348.177.73.177 1.131 0 1.605-1.008 2.906-2.25 2.906z"/><path fill="#FFF" d="M17.316 17.953a5.289 5.289 0 0 1-3.739 9.027 5.287 5.287 0 0 0 3.739-9.027zm-9.027 3.739c0-2.383 1.586-4.373 3.752-5.035-2.166.662-3.753 2.652-3.752 5.035-.001 2.383 1.586 4.373 3.752 5.035-2.166-.662-3.752-2.653-3.752-5.035zm11.068-10.479zm0 0c-.407-.526-.97-.851-1.591-.851.621 0 1.183.325 1.591.851z"/><path fill="#606060" d="M13.577 26.98zm0-10.576zm-1.536.253z"/></symbol><symbol viewBox="-24.647 -21.735 100 87.152" id="pyramid" xmlns="http://www.w3.org/2000/svg"><path d="M6.109-13.182a.813.813 0 0 1 1.479-.309l10.04 15.399 2.591-3.68L7.351-20.735a2.28 2.28 0 0 0-1.866-1 2.267 2.267 0 0 0-1.879.967L-24.231 18.79a2.277 2.277 0 0 0 .63 3.227l18.645 11.985 4.021-5.717 7.044-41.467zm68.722 58.185L38.12-9.124a2.865 2.865 0 0 0-2.374-1.258c-.934 0-1.807.455-2.345 1.216L-3.72 43.557a3.047 3.047 0 0 0-.494 2.33c.158.81.639 1.523 1.33 1.967l26.566 17.079a3.008 3.008 0 0 0 1.637.484c.319 0 .641-.048.956-.151l47.014-15.672a3.025 3.025 0 0 0 1.906-1.899 3.089 3.089 0 0 0-.364-2.692zm-8.327-.267a1.645 1.645 0 0 1-1.015 1.02L28.43 58.606a1.084 1.084 0 0 1-1.048-.199 1.066 1.066 0 0 1-.365-1.002L36.58 1.111a1.075 1.075 0 0 1 1.962-.407l27.784 42.61c.276.42.34.945.178 1.422z" fill="#606060"/></symbol><symbol viewBox="619.446 685.438 100 99.999" id="skype" xmlns="http://www.w3.org/2000/svg"><path fill="#0079BC" d="M496.063 233.555zM390.125 343.933z"/><path fill="#606060" d="M713.491 743.408a45.1 45.1 0 0 0 .509-3.716c.135-1.426.205-2.846.205-4.256 0-12.359-5.01-23.548-13.109-31.647-8.1-8.1-19.29-13.109-31.649-13.109-1.409 0-2.829.07-4.254.205-1.264.12-2.504.29-3.717.508a25.557 25.557 0 0 0-17.311-5.94 25.517 25.517 0 0 0-17.22 7.482 25.518 25.518 0 0 0-7.483 17.22 25.555 25.555 0 0 0 5.941 17.311 45.04 45.04 0 0 0-.509 3.716 45.125 45.125 0 0 0-.205 4.255c0 12.36 5.01 23.549 13.109 31.648 8.1 8.1 19.29 13.11 31.649 13.11 1.41 0 2.83-.07 4.256-.205a45.124 45.124 0 0 0 3.717-.509 25.546 25.546 0 0 0 17.309 5.941 25.521 25.521 0 0 0 17.221-7.482 25.524 25.524 0 0 0 7.482-17.221 25.563 25.563 0 0 0-5.941-17.311zm-23.615 8.507c-.943 1.826-2.323 3.449-4.103 4.825-3.844 2.972-9.491 4.677-15.493 4.677-3.104 0-6.13-.337-8.994-1.001-2.736-.634-5.191-1.534-7.299-2.675-2.085-1.128-3.774-2.485-4.886-3.924-1.072-1.387-1.615-2.837-1.615-4.311 0-1.527.471-2.855 1.325-3.739.842-.871 2.028-1.312 3.527-1.312 1.035 0 1.891.257 2.777.835.904.589 1.738 1.437 2.705 2.42 2.311 2.35 5.476 5.569 11.874 5.569 2.585 0 4.828-.547 6.487-1.581 1.764-1.1 2.776-2.757 2.776-4.545 0-1.978-.955-3.49-2.839-4.493-1.115-.594-2.489-.993-4.165-1.42l.003-.011-1.949-.476-8.423-2.056-.209-.051c-2.181-.547-3.992-1.137-5.532-1.8-1.786-.769-3.226-1.64-4.4-2.663-1.29-1.123-2.233-2.397-2.885-3.893-.712-1.635-1.073-3.581-1.073-5.784v-.044c.013-4.944 2.176-8.797 6.431-11.453 1.886-1.177 4.13-2.084 6.669-2.695 2.332-.561 4.904-.858 7.439-.858 2.746 0 5.584.29 8.206.838 2.602.544 5.013 1.346 6.97 2.32 1.89.941 3.35 2.02 4.339 3.208.94 1.129 1.417 2.336 1.417 3.585 0 1.446-.483 2.783-1.361 3.765-.921 1.031-2.196 1.576-3.688 1.576h-.234c-1.951-.07-3.019-1.032-4.604-2.459-1.925-1.733-4.561-4.106-9.966-4.106-2.82 0-5.03.418-6.57 1.243-1.674.897-2.597 2.353-2.597 4.1 0 1.285.461 3.065 2.655 4.251 1.423.769 3.269 1.215 5.72 1.76l.214.048h.001l5.76 1.323c3.297.754 8.092 2.037 11.654 4.457 1.738 1.182 3.073 2.55 3.968 4.068 1.009 1.712 1.499 3.629 1.499 5.859.001 2.425-.514 4.654-1.531 6.623z"/></symbol><symbol viewBox="12.089 -9.914 100 100.002" id="square" xmlns="http://www.w3.org/2000/svg"><g fill="#606060"><path d="M99.193 67.125a3.334 3.334 0 0 0-3.335 3.335v3.335h-3.335a3.333 3.333 0 0 0-3.335 3.335 3.333 3.333 0 0 0 3.335 3.335h6.671a3.332 3.332 0 0 0 3.335-3.335v-6.671a3.335 3.335 0 0 0-3.336-3.334zm-18.845 6.671h-8.253v6.671h8.253a3.332 3.332 0 0 0 3.335-3.335 3.332 3.332 0 0 0-3.335-3.336zm-39.856 3.335a3.333 3.333 0 0 0 3.335 3.335h8.256v-6.671h-8.256a3.334 3.334 0 0 0-3.335 3.336zm-8.837-3.335H28.32v-3.335a3.334 3.334 0 0 0-3.335-3.335 3.333 3.333 0 0 0-3.335 3.335v6.671a3.333 3.333 0 0 0 3.335 3.335h6.671a3.332 3.332 0 0 0 3.335-3.335 3.334 3.334 0 0 0-3.336-3.336zM28.32 21.765a3.333 3.333 0 0 0-3.335-3.335 3.333 3.333 0 0 0-3.335 3.335v8.315h6.671l-.001-8.315zm-3.334 39.857a3.333 3.333 0 0 0 3.335-3.335v-8.194H21.65v8.194a3.334 3.334 0 0 0 3.336 3.335zm0-48.693a3.333 3.333 0 0 0 3.335-3.335V6.258h3.335c1.844 0 3.335-1.491 3.335-3.335S33.499-.412 31.656-.412h-6.67a3.333 3.333 0 0 0-3.335 3.335v6.671a3.333 3.333 0 0 0 3.335 3.335zM43.83 6.258h8.253v-6.67H43.83c-1.844 0-3.335 1.492-3.335 3.335s1.493 3.335 3.335 3.335zm39.857-3.334a3.333 3.333 0 0 0-3.335-3.335h-8.256V6.26h8.256a3.336 3.336 0 0 0 3.335-3.336zm8.836 3.334h3.335v3.335a3.333 3.333 0 0 0 3.335 3.335 3.332 3.332 0 0 0 3.335-3.335V2.922a3.333 3.333 0 0 0-3.335-3.335h-6.671a3.335 3.335 0 1 0 .001 6.671zm6.67 12.175a3.334 3.334 0 0 0-3.335 3.335v8.312h6.671v-8.312a3.336 3.336 0 0 0-3.336-3.335zm-3.335 39.856a3.333 3.333 0 0 0 3.335 3.335 3.333 3.333 0 0 0 3.335-3.335v-8.197h-6.671l.001 8.197z"/><path d="M107.085 35.084H67.092V-4.91c0-2.762-2.241-5.003-5.002-5.003s-5.002 2.241-5.002 5.003v39.993H17.092c-2.762 0-5.003 2.241-5.003 5.002s2.241 5.002 5.003 5.002h39.996v39.997c0 2.762 2.241 5.003 5.002 5.003s5.002-2.241 5.002-5.003V45.088h39.993a5.004 5.004 0 0 0 5.003-5.002 5.005 5.005 0 0 0-5.003-5.002z"/></g></symbol><symbol viewBox="102.08 76.489 150 113.791" id="truck" xmlns="http://www.w3.org/2000/svg"><path fill="#606060" d="M250.151 166.269h-4.686V140.06c0-3.066-.925-6.075-2.642-8.621l-11.745-17.396a15.439 15.439 0 0 0-12.787-6.789h-18.206a3.856 3.856 0 0 0-3.857 3.857v55.157h-29.816a15.842 15.842 0 0 1 5.342 9.72h31.436c1.118-7.656 7.714-13.578 15.679-13.578s14.542 5.921 15.661 13.578h15.621a1.934 1.934 0 0 0 1.928-1.928v-5.863a1.934 1.934 0 0 0-1.928-1.928zm-19.208-31.358h-24.03a1.921 1.921 0 0 1-1.928-1.928v-13.326c0-1.061.868-1.928 1.928-1.928h14.638c.637 0 1.215.308 1.581.81l9.392 13.346c.887 1.271-.019 3.026-1.581 3.026zm-12.073 31.358c-6.634 0-11.996 5.381-11.996 12.015 0 6.615 5.361 11.996 11.996 11.996 6.615 0 11.996-5.381 11.996-11.996-.001-6.634-5.381-12.015-11.996-12.015zm0 18.014a6.005 6.005 0 0 1-5.998-5.998 5.992 5.992 0 0 1 5.998-5.998 5.992 5.992 0 0 1 5.998 5.998 6.005 6.005 0 0 1-5.998 5.998zm-100.017-18.014a1.934 1.934 0 0 0-1.928 1.928v5.863c0 1.061.868 1.928 1.928 1.928h21.561a15.91 15.91 0 0 1 5.323-9.72l-26.884.001zm37.222 0c-6.615 0-11.996 5.381-11.996 12.015 0 6.615 5.381 11.996 11.996 11.996 6.634 0 11.996-5.381 11.996-11.996 0-6.634-5.362-12.015-11.996-12.015zm0 18.014a6.005 6.005 0 0 1-5.998-5.998 5.992 5.992 0 0 1 5.998-5.998 5.992 5.992 0 0 1 5.998 5.998 6.005 6.005 0 0 1-5.998 5.998zm28.852-88.985h-22.353a32.381 32.381 0 0 1 1.678 10.356c0 18.206-14.811 33.017-33.017 33.017-3.317 0-6.538-.501-9.566-1.408v21.311c0 1.061.868 1.928 1.928 1.928h65.186a1.934 1.934 0 0 0 1.928-1.928v-57.491a5.776 5.776 0 0 0-5.784-5.785zm-53.688-18.809c-16.104 0-29.159 13.055-29.159 29.159s13.055 29.159 29.159 29.159 29.159-13.055 29.159-29.159-13.055-29.159-29.159-29.159zm0 51.682c-12.439 0-22.524-10.084-22.524-22.524s10.084-22.524 22.524-22.524c12.44 0 22.524 10.084 22.524 22.524 0 12.44-10.084 22.524-22.524 22.524zm8.602-17.766c-.248 0-.503-.032-.755-.1l-9.398-2.533a2.894 2.894 0 0 1-2.139-2.793V90.515a2.894 2.894 0 0 1 5.786 0v12.248l7.258 1.957a2.893 2.893 0 0 1-.752 5.685z"/></symbol><symbol viewBox="0 0 24 34" id="uparr" xmlns="http://www.w3.org/2000/svg"><path fill="#FFF" d="M12 0L0 18h6.021v16h11.963V18H24z"/></symbol><symbol viewBox="455.5 446.5 100 100" id="vkontakte" xmlns="http://www.w3.org/2000/svg"><path fill="#606060" d="M475.094 446.5c-10.777 0-19.594 8.818-19.594 19.594v60.811c0 10.777 8.818 19.594 19.594 19.594h60.811c10.777 0 19.594-8.818 19.594-19.594v-60.811c0-10.777-8.818-19.594-19.594-19.594h-60.811zm11.218 22.563h19.726c4.097 0 7.208.15 9.321.472 2.112.306 4.096.961 5.94 1.959 1.995 1.075 3.494 2.522 4.481 4.315.987 1.804 1.487 3.877 1.487 6.234 0 2.724-.68 5.145-2.05 7.271-1.357 2.126-3.24 3.689-5.634 4.699v.291c3.445.732 6.208 2.203 8.28 4.443 2.075 2.243 3.112 5.261 3.112 9.052 0 2.775-.524 5.222-1.575 7.321-1.051 2.099-2.457 3.828-4.237 5.212a19.65 19.65 0 0 1-6.927 3.518c-2.509.702-5.695 1.053-9.574 1.053h-22.35v-55.84zm13.951 10.236v11.817h1.765c2.394 0 4.086-.025 5.046-.075s1.96-.308 2.984-.781c1.112-.524 1.895-1.252 2.315-2.175.423-.934.641-2.012.641-3.228 0-.907-.231-1.831-.694-2.778a4.144 4.144 0 0 0-2.162-2.062c-.921-.41-2.009-.626-3.278-.665-1.266-.04-3.148-.053-5.643-.053h-.974zm0 21.382v13.98h.756c3.65 0 6.171-.028 7.565-.078 1.394-.05 2.83-.381 4.274-1.009 1.282-.551 2.203-1.358 2.793-2.422.588-1.061.881-2.266.881-3.609 0-1.729-.342-3.073-1.047-4.046-.702-.984-1.753-1.715-3.15-2.215-.846-.333-2.025-.513-3.509-.55a257.62 257.62 0 0 0-5.977-.05h-2.586v-.001z"/></symbol><symbol viewBox="259.389 365.14 100 114.968" id="watch" xmlns="http://www.w3.org/2000/svg"><path fill="#606060" d="M286.138 432.116c0 1.647-1.317 3.011-2.988 3.011a2.987 2.987 0 0 1-2.117-.87 2.987 2.987 0 0 1-.87-2.117c0-1.647 1.317-3.011 2.988-3.011 1.622 0 2.987 1.341 2.987 2.987zm1.999 14.939c-1.176 1.176-1.153 3.058 0 4.235 1.176 1.153 3.082 1.153 4.235-.024a2.982 2.982 0 0 0-.024-4.235 2.976 2.976 0 0 0-4.211.024zm19.126-36.158c1.647 0 3.011-1.341 3.011-3.011s-1.341-3.011-3.011-3.011a3.002 3.002 0 0 0-3.011 3.011 3.01 3.01 0 0 0 3.011 3.011zm-19.244 6.281c1.176 1.153 3.082 1.153 4.235-.024l.024-.024.047-.047a2.983 2.983 0 0 0 0-4.235c-1.176-1.176-3.082-1.176-4.235 0l-.047.047-.047.047c-1.153 1.154-1.153 3.06.023 4.236zm19.315 36.017c-1.67 0-2.988 1.341-2.988 3.011 0 .823.329 1.576.87 2.117.541.541 1.294.87 2.141.87a2.997 2.997 0 0 0 2.988-3.011 2.997 2.997 0 0 0-3.011-2.987zm14.938-6.234c-1.176 1.176-1.176 3.082 0 4.235 1.176 1.176 3.082 1.176 4.235 0 1.176-1.176 1.153-3.082 0-4.258-1.176-1.153-3.082-1.153-4.235.023zm9.152-17.95a3.002 3.002 0 0 0-3.011 3.011c0 .823.329 1.576.87 2.117.541.541 1.294.894 2.117.87 1.67 0 2.988-1.341 3.011-3.011.024-1.646-1.317-2.987-2.987-2.987zm-24.019 51.097c-26.466 0-48.015-21.549-48.015-48.015 0-24.56 18.561-44.863 42.393-47.662v-7.269h-2.988a2.705 2.705 0 0 1-2.705-2.705v-6.611a2.705 2.705 0 0 1 2.705-2.705h17.22a2.705 2.705 0 0 1 2.705 2.705v6.611a2.705 2.705 0 0 1-2.705 2.705h-2.988v7.246c9.057 1.059 17.338 4.658 24.137 10.045l3.905-3.905-.353-.353a2.712 2.712 0 0 1 0-3.835l5.364-5.364a2.712 2.712 0 0 1 3.835 0l8.681 8.681a2.712 2.712 0 0 1 0 3.835l-5.364 5.364a2.712 2.712 0 0 1-3.835 0l-.353-.353-3.905 3.905a47.676 47.676 0 0 1 10.28 29.642c.001 26.489-21.548 48.038-48.014 48.038zm36.863-48.015c0-20.326-16.538-36.864-36.864-36.864s-36.864 16.538-36.864 36.864 16.515 36.864 36.864 36.864c20.326 0 36.864-16.538 36.864-36.864zm-17.573-19.479c1.106 1.106 1.176 2.894.165 4.07l-12.233 14.327c.306 2.235-.376 4.564-2.094 6.281-2.894 2.894-7.599 2.894-10.516 0-2.893-2.893-2.893-7.599 0-10.516 1.717-1.717 4.046-2.399 6.281-2.094l14.327-12.233a3.007 3.007 0 0 1 4.07.165zm-17.291 17.315c-1.176-1.176-3.082-1.176-4.235 0-1.176 1.176-1.176 3.082 0 4.235 1.176 1.176 3.082 1.176 4.235 0a2.983 2.983 0 0 0 0-4.235z"/></symbol></svg>